<?xml version="1.0" standalone="no"?>
<!DOCTYPE svg PUBLIC "-//W3C//DTD SVG 20010904//EN"
 "http://www.w3.org/TR/2001/REC-SVG-20010904/DTD/svg10.dtd">
<svg version="1.0" xmlns="http://www.w3.org/2000/svg"
 width="1280.000000pt" height="1280.000000pt" viewBox="0 0 1280.000000 1280.000000"
 preserveAspectRatio="xMidYMid meet">
<metadata>
Created by potrace 1.15, written by Peter Selinger 2001-2017
</metadata>
<g transform="translate(0.000000,1280.000000) scale(0.100000,-0.100000)"
fill="#2196f3" stroke="none">
<path d="M4701 11624 c-6 -15 -9 -29 -7 -32 3 -2 26 1 51 8 33 9 44 17 41 27
-4 8 -6 17 -6 19 0 2 -15 4 -33 4 -27 0 -36 -6 -46 -26z"/>
<path d="M8169 11600 c-64 -8 -79 -15 -79 -36 0 -8 -4 -14 -9 -14 -5 0 -28
-30 -52 -67 -23 -38 -46 -69 -51 -71 -4 -2 -8 -7 -8 -11 0 -13 181 19 206 36
13 8 29 28 36 44 7 16 16 29 21 29 17 0 28 54 16 77 -7 13 -15 22 -18 22 -3
-1 -31 -5 -62 -9z"/>
<path d="M4722 11577 c-34 -8 -41 -13 -37 -28 7 -22 87 -146 114 -178 12 -13
21 -29 22 -35 0 -6 17 -36 37 -66 31 -45 44 -56 72 -60 31 -5 33 -6 11 -12
-32 -9 -22 -31 20 -42 24 -6 51 -3 91 9 l58 16 -16 25 c-9 13 -20 24 -25 24
-5 0 -9 5 -9 11 0 18 -40 69 -55 69 -7 0 -15 -9 -18 -21 -3 -12 -10 -18 -15
-15 -13 8 -3 49 15 59 10 6 6 17 -20 50 -19 23 -60 79 -91 125 -63 90 -65 91
-154 69z"/>
<path d="M8070 11358 c-25 -5 -64 -7 -87 -4 -40 5 -43 4 -43 -19 0 -14 -8 -29
-20 -35 -40 -22 -22 -32 45 -25 92 10 82 -7 -22 -36 -74 -20 -90 -29 -101 -52
-7 -15 -19 -27 -26 -27 -12 0 -25 -28 -26 -52 0 -13 28 -9 34 5 5 10 7 10 12
0 4 -8 27 -13 64 -13 51 0 60 3 65 21 4 12 29 52 56 89 27 36 49 71 49 77 0 6
12 22 26 36 35 35 28 45 -26 35z"/>
<path d="M5028 11143 c-63 -16 -75 -36 -33 -55 14 -6 25 -15 25 -20 0 -11 87
-10 94 1 3 4 17 6 31 3 34 -6 33 17 -2 57 -31 35 -35 35 -115 14z"/>
<path d="M5030 11037 c0 -32 31 -57 73 -59 l42 -1 -38 -4 -37 -4 26 -35 c23
-30 31 -34 58 -30 l31 6 -27 -13 -27 -12 20 -25 c10 -14 19 -30 19 -37 0 -38
54 -32 220 27 78 28 81 30 38 26 -27 -3 -59 -8 -72 -12 -20 -5 -30 4 -72 60
-26 36 -51 66 -56 66 -4 0 -8 4 -8 10 0 5 -8 19 -17 30 -15 17 -30 20 -95 20
-57 0 -78 -4 -78 -13z"/>
<path d="M6065 11035 c-22 -7 -75 -16 -117 -20 -52 -4 -78 -11 -82 -21 -4 -11
7 -14 52 -15 l57 -1 -160 -54 c-204 -70 -500 -144 -574 -144 -44 0 -60 -4 -74
-20 -9 -11 -28 -20 -41 -20 -13 0 -29 -7 -36 -15 -7 -8 -23 -15 -35 -15 -12 0
-34 -9 -48 -20 -14 -11 -29 -20 -35 -20 -5 0 -19 -9 -32 -20 -13 -11 -29 -20
-36 -20 -20 0 -83 -44 -84 -57 0 -7 -8 -13 -18 -13 -18 0 -95 -53 -143 -98
-13 -13 -36 -30 -51 -38 -16 -8 -28 -19 -28 -24 0 -5 -9 -11 -19 -15 -11 -3
-26 -19 -33 -35 -7 -16 -23 -31 -35 -35 -12 -3 -29 -18 -37 -34 -9 -16 -27
-32 -41 -35 -27 -7 -35 -40 -12 -49 18 -7 326 9 455 24 57 6 105 9 108 6 5 -5
-101 -22 -435 -69 l-233 -33 -30 -37 -30 -38 29 5 c15 3 143 21 283 40 443 62
548 83 600 119 l45 31 190 -3 c215 -3 308 3 905 59 398 38 722 59 710 46 -10
-11 -1100 -166 -1245 -177 -82 -6 -161 -13 -175 -16 -22 -5 -23 -7 -9 -18 10
-6 23 -31 30 -54 11 -39 15 -42 48 -42 64 0 413 20 531 31 169 15 1360 194
1535 231 141 29 167 32 425 37 217 5 270 9 250 18 -14 6 -32 18 -39 27 -8 10
-30 16 -55 17 -39 1 -39 1 -14 10 25 10 26 11 10 30 -9 10 -24 19 -34 19 -10
0 -24 14 -33 30 -13 24 -22 30 -49 30 -19 0 -193 -25 -387 -55 -194 -31 -360
-54 -368 -53 -9 2 137 27 324 57 314 49 418 68 388 70 -6 1 -9 10 -6 20 3 13
-1 21 -14 25 -11 4 -215 -25 -454 -63 -239 -38 -515 -76 -614 -85 -205 -17
-596 -28 -550 -15 17 5 356 52 755 104 399 53 735 98 748 101 19 4 21 7 9 18
-7 7 -22 16 -34 20 -12 4 -27 13 -33 21 -7 8 -20 15 -30 15 -10 0 -23 6 -29
14 -7 8 -34 17 -61 21 -36 5 -53 13 -64 30 -14 21 -14 27 4 67 11 24 35 61 55
82 19 22 35 44 35 49 0 6 11 25 25 43 14 18 25 35 25 38 0 3 -34 6 -74 6 -66
0 -78 -3 -101 -25 -64 -58 -119 -185 -81 -185 9 0 16 -4 16 -10 0 -16 -30 -12
-36 5 -4 8 -14 15 -24 15 -11 0 -21 4 -24 9 -3 5 -27 12 -52 16 -26 4 -53 12
-60 19 -7 7 -33 16 -58 19 -26 4 -57 13 -69 22 -13 8 -46 18 -73 21 -27 4 -53
10 -59 14 -5 4 -37 11 -70 15 -33 4 -65 11 -71 16 -6 5 -49 12 -95 15 -46 3
-101 12 -122 20 -53 20 -723 20 -782 -1z m805 -61 c-126 -31 -1006 -134 -1042
-122 -6 2 70 31 168 65 l179 62 355 -1 c195 0 348 -2 340 -4z m-113 -40 c-3
-3 -12 -4 -19 -1 -8 3 -5 6 6 6 11 1 17 -2 13 -5z m666 -41 c-7 -2 -21 -2 -30
0 -10 3 -4 5 12 5 17 0 24 -2 18 -5z m-1275 -90 c-10 -2 -28 -2 -40 0 -13 2
-5 4 17 4 22 1 32 -1 23 -4z m125 -100 c-7 -2 -21 -2 -30 0 -10 3 -4 5 12 5
17 0 24 -2 18 -5z m-95 -10 c-10 -2 -26 -2 -35 0 -10 3 -2 5 17 5 19 0 27 -2
18 -5z m272 -127 c0 -7 -238 -48 -252 -44 -7 3 39 14 102 25 120 22 150 26
150 19z m-273 -52 c-3 -3 -12 -4 -19 -1 -8 3 -5 6 6 6 11 1 17 -2 13 -5z
m1833 -90 c-55 -13 -184 -28 -165 -19 13 6 175 33 200 33 11 0 -5 -6 -35 -14z
m-465 -89 c-18 -7 -1219 -184 -1315 -194 -52 -5 -131 -12 -175 -15 l-80 -5 80
14 c44 8 325 51 625 95 300 44 581 87 625 94 70 12 266 21 240 11z"/>
<path d="M5715 10970 c-7 -12 2 -12 30 0 19 8 19 9 -2 9 -12 1 -25 -3 -28 -9z"/>
<path d="M5594 10936 c-3 -8 -26 -17 -54 -21 -29 -4 -51 -13 -54 -21 -4 -11
-1 -14 12 -10 9 3 39 10 65 15 26 5 55 15 65 23 9 9 24 18 32 21 8 3 -2 6 -23
6 -24 1 -40 -4 -43 -13z"/>
<path d="M8121 10299 c-226 -22 -353 -39 -365 -50 -6 -6 -4 -9 6 -9 8 0 21 -7
28 -15 7 -8 20 -15 29 -15 9 0 22 -9 29 -20 7 -11 18 -20 26 -20 8 0 19 -13
24 -29 6 -16 23 -56 39 -89 l28 -61 75 -3 75 -3 -75 -15 c-74 -15 -75 -15 -78
-48 -3 -30 -1 -32 20 -27 148 34 657 89 673 73 6 -6 -386 -65 -564 -86 -110
-12 -144 -20 -148 -32 -16 -50 -39 -92 -60 -105 -13 -9 -28 -27 -33 -41 -5
-13 -17 -24 -27 -24 -9 0 -36 -9 -60 -21 -35 -17 -56 -20 -120 -16 -108 6
-171 32 -223 92 -23 27 -49 63 -58 82 -9 18 -19 33 -24 33 -4 0 -52 -7 -106
-15 -178 -26 -799 -81 -809 -71 -2 2 49 11 114 21 65 10 268 41 452 69 l335
51 3 65 c4 78 17 114 55 150 15 15 28 31 28 36 0 4 12 18 28 31 l27 23 -30 -6
c-342 -58 -968 -145 -1323 -184 -250 -28 -455 -50 -457 -50 -2 0 -9 -25 -15
-55 -6 -30 -16 -57 -21 -60 -5 -4 -14 -26 -20 -51 -7 -27 -20 -49 -33 -56 -21
-12 -21 -12 4 -19 23 -6 23 -7 -7 -8 -19 -1 -33 -6 -33 -14 0 -18 -97 -60
-153 -65 -26 -3 -50 -9 -53 -13 -13 -21 -97 3 -132 38 -7 7 -19 13 -27 13 -18
0 -66 47 -100 98 l-28 42 -146 1 -146 2 140 13 c77 7 140 13 141 13 0 1 -2 15
-4 32 -5 31 -5 31 -53 27 -52 -5 -58 6 -9 17 40 9 60 30 60 65 l0 28 -97 -38
c-54 -21 -125 -50 -158 -65 -55 -24 -83 -28 -363 -50 -173 -13 -309 -28 -316
-34 -8 -7 -16 -21 -19 -31 -5 -18 0 -20 41 -20 26 0 128 7 227 15 246 20 265
20 265 -4 0 -18 -14 -19 -267 -23 -148 -3 -275 -8 -283 -12 -22 -9 -70 -93
-70 -121 0 -31 -20 -77 -41 -92 -19 -14 -35 -53 -44 -105 -3 -21 -10 -38 -14
-38 -5 0 -12 -7 -15 -16 -6 -15 15 -16 246 -12 139 3 237 4 218 2 -19 -3 -118
-13 -220 -24 -264 -29 -248 -25 -261 -74 -6 -22 -14 -45 -19 -51 -8 -11 -40
-116 -40 -134 0 -8 208 -12 718 -13 l717 -3 -160 -23 c-151 -21 -192 -22 -721
-22 -616 0 -574 4 -574 -58 1 -49 40 -78 68 -50 9 9 17 9 34 -1 18 -9 148 -10
553 -6 1046 10 1989 13 1955 5 -35 -8 253 -5 613 6 131 4 187 2 187 -5 0 -13
1966 -16 1974 -2 3 4 3 31 -1 60 l-6 51 -41 1 -41 1 38 10 c36 10 37 12 37 53
0 41 -19 73 -28 47 -2 -7 -7 -12 -12 -12 -5 0 -2 13 6 29 11 23 12 39 3 79 -5
28 -17 53 -25 56 -8 3 -14 14 -14 25 0 19 -8 21 -97 24 l-98 3 98 2 c110 2
110 2 72 79 -13 28 -27 64 -31 80 -7 26 -18 53 -62 143 l-17 35 -268 0 c-147
0 -267 3 -267 6 0 10 240 30 383 32 l127 2 -33 50 c-19 28 -37 61 -42 74 -7
22 -11 23 -54 17 -385 -55 -840 -102 -786 -81 11 5 774 95 800 95 14 0 14 4
-4 29 -12 16 -21 33 -21 37 0 5 -15 22 -33 39 -19 16 -36 38 -40 47 -6 16 -27
18 -194 20 l-188 3 135 18 c174 24 180 25 180 41 0 7 -8 20 -19 30 -17 15 -26
15 -126 1 -60 -8 -113 -15 -119 -14 -28 1 47 22 120 32 l81 12 -24 38 c-14 22
-31 37 -43 37 -11 0 -20 4 -20 10 0 5 -11 21 -25 35 -31 31 -62 31 -334 4z
m-1308 -406 c-7 -2 -19 -2 -25 0 -7 3 -2 5 12 5 14 0 19 -2 13 -5z m-58 -8
c-41 -15 -1114 -159 -1144 -153 -9 2 225 36 519 76 294 40 542 75 550 77 21 4
87 4 75 0z m-2 -172 c-13 -2 -33 -2 -45 0 -13 2 -3 4 22 4 25 0 35 -2 23 -4z
m-1156 -19 c-3 -3 -12 -4 -19 -1 -8 3 -5 6 6 6 11 1 17 -2 13 -5z m2403 -199
c-96 -13 -229 -33 -295 -46 -107 -20 -166 -23 -540 -29 -299 -5 -551 -16 -875
-39 -250 -17 -471 -30 -490 -30 -34 1 374 72 720 126 172 26 184 27 825 33
358 3 691 6 740 7 86 1 82 0 -85 -22z m-2585 6 c-21 -18 -604 -47 -1125 -55
l-315 -5 150 25 c83 14 209 29 280 33 181 11 1021 13 1010 2z m660 1 c-11 -9
-306 -55 -312 -48 -2 2 49 13 114 25 188 33 213 36 198 23z m2880 -67 c-22 -8
-74 -13 -115 -13 l-75 1 90 12 c123 17 151 17 100 0z m-3628 -81 c-20 -20
-169 -33 -372 -32 -199 1 -210 2 -115 9 58 5 188 12 290 17 102 5 189 10 194
10 5 1 6 -1 3 -4z m1668 -15 c-27 -5 -160 -11 -295 -13 -135 -2 -229 -2 -210
0 155 20 610 31 505 13z m1624 7 c-2 -2 -119 -6 -259 -9 -140 -3 -241 -1 -225
3 29 7 493 14 484 6z m311 -74 c0 -4 -71 -16 -157 -25 -234 -25 -330 -31 -318
-20 22 22 117 37 265 43 85 3 167 7 183 8 15 1 27 -2 27 -6z m-665 -25 c-55
-19 -87 -21 -355 -23 -323 -4 -359 7 -84 25 231 16 263 17 389 18 l110 1 -60
-21z m-979 -7 c-40 -12 -173 -24 -164 -15 4 4 40 10 80 15 100 10 119 10 84 0z
m-1873 -87 c-199 -2 -527 -2 -730 0 -202 1 -39 2 362 2 402 0 567 -1 368 -2z
m1295 0 c-53 -2 -143 -2 -200 0 -57 1 -13 3 97 3 110 0 156 -2 103 -3z m1252
-2 c-8 -5 -87 -18 -175 -30 -330 -43 -404 -53 -540 -71 -127 -18 -206 -20
-849 -20 -390 0 -707 2 -705 5 3 2 61 14 130 25 110 18 170 20 521 20 422 0
513 7 748 54 108 22 138 24 500 25 220 0 379 -3 370 -8z m1148 -36 c-3 -3
-115 -23 -249 -45 l-244 -40 -385 1 c-212 1 -376 4 -365 6 11 3 157 22 325 43
288 36 322 38 614 39 170 0 307 -1 304 -4z m-41 -51 c-3 -3 -12 -4 -19 -1 -8
3 -5 6 6 6 11 1 17 -2 13 -5z"/>
<path d="M4890 10099 c-199 -18 -676 -81 -687 -91 -7 -6 -13 -16 -13 -24 0 -7
-8 -18 -17 -23 -17 -10 -16 -10 2 -11 11 0 162 18 335 39 173 22 359 43 413
46 78 6 100 11 104 24 2 9 9 24 14 34 11 20 6 20 -151 6z"/>
<path d="M2690 8500 c-10 -7 15 -10 79 -10 52 0 92 -2 89 -5 -3 -3 -95 -22
-204 -41 -132 -24 -202 -40 -207 -50 -4 -8 -12 -14 -18 -14 -13 0 -99 -87 -99
-101 0 -8 29 -10 103 -5 56 3 265 5 465 6 l363 0 -48 50 -48 49 -135 -9 c-136
-9 -447 -14 -439 -6 2 2 99 21 214 41 262 45 258 44 216 61 -19 8 -47 14 -65
14 -17 0 -44 7 -60 15 -32 17 -182 21 -206 5z"/>
<path d="M10045 8500 c-4 -6 28 -10 89 -10 57 0 96 4 96 10 0 6 -36 10 -89 10
-50 0 -93 -4 -96 -10z"/>
<path d="M3880 8475 c-47 -7 -91 -14 -97 -14 -10 -1 -13 -47 -13 -195 l0 -195
33 -4 32 -4 -32 -1 -33 -2 0 -220 c0 -185 2 -220 14 -220 23 0 277 38 435 65
206 36 585 65 814 64 159 -1 181 -3 127 -11 -36 -5 -150 -22 -255 -38 -104
-16 -264 -34 -355 -40 -91 -6 -302 -24 -470 -38 l-305 -27 -3 -178 c-2 -167
-1 -178 15 -173 64 20 379 76 455 81 51 3 115 8 143 11 27 3 47 3 44 -1 -7 -7
-301 -65 -482 -95 -200 -34 -177 -18 -177 -116 l0 -84 83 4 c74 5 77 4 32 -5
-27 -5 -65 -12 -82 -15 l-33 -5 0 -315 0 -316 28 6 c128 26 809 112 818 103
11 -10 -173 -40 -482 -77 -186 -22 -345 -43 -351 -45 -9 -3 -13 -31 -13 -95 0
-104 -8 -99 117 -75 43 8 143 24 223 35 158 21 810 83 816 77 2 -2 -212 -40
-476 -85 -372 -64 -490 -81 -528 -76 -35 4 -65 1 -101 -11 l-51 -17 0 -73 0
-74 85 6 c47 3 85 4 85 1 0 -3 -38 -11 -85 -18 l-85 -12 0 -153 c0 -138 2
-154 18 -158 16 -4 16 -5 0 -6 -16 -1 -18 -14 -18 -135 0 -98 3 -136 13 -139
10 -4 10 -6 0 -6 -10 -1 -13 -29 -13 -106 l0 -105 48 -1 c51 -1 48 -4 -10 -14
l-38 -6 0 -100 0 -100 33 6 c116 20 202 24 437 24 291 -1 291 -4 2 -43 -130
-18 -224 -37 -327 -67 l-145 -43 0 -58 0 -57 63 -3 62 -3 -62 -9 -63 -9 1
-128 c0 -71 4 -129 8 -129 4 0 149 20 322 45 280 40 366 49 319 32 -20 -7
-553 -86 -605 -89 l-40 -3 0 -45 0 -45 232 1 c128 1 231 -2 228 -6 -3 -4 -108
-11 -235 -15 l-230 -8 0 -28 c0 -26 4 -29 33 -30 l32 -1 -30 -7 c-30 -6 -30
-7 -33 -81 -2 -58 3 -93 23 -159 34 -108 50 -130 95 -132 31 -2 32 -3 8 -6
-18 -3 -28 -10 -28 -22 0 -21 57 -76 88 -84 26 -6 539 67 825 118 l198 35 486
0 c268 0 484 -2 482 -4 -2 -2 -94 -15 -204 -30 -110 -14 -371 -49 -580 -78
-403 -55 -536 -64 -955 -68 -124 -1 -218 -4 -210 -7 37 -14 88 -36 122 -54 34
-18 59 -19 331 -19 253 0 296 2 301 15 7 18 22 20 25 3 2 -7 5 -64 8 -126 l4
-113 42 6 c108 14 310 35 313 32 7 -7 -191 -39 -273 -44 l-83 -6 0 -193 0
-193 158 -3 157 -3 -157 -40 -158 -39 0 -163 c0 -161 0 -163 22 -163 12 0 177
20 366 45 189 25 348 45 354 43 26 -9 -414 -90 -562 -103 -91 -8 -169 -15
-173 -15 -10 0 -3 -342 8 -387 l7 -33 67 0 c73 -1 67 -13 -11 -24 -36 -5 -48
-12 -48 -24 1 -48 2 -48 302 1 248 41 307 47 478 51 245 6 225 2 -320 -70
-234 -30 -427 -57 -429 -59 -7 -8 40 -64 52 -60 7 2 248 32 537 65 289 34 528
64 532 68 4 4 11 88 15 186 l6 179 -34 -7 c-19 -4 -83 -9 -144 -12 -141 -6
-112 9 53 27 l122 13 0 107 c0 104 -1 108 -22 112 l-23 4 23 2 22 1 0 195 c0
149 -3 195 -12 195 -7 0 -51 -4 -98 -9 -130 -15 -191 -19 -184 -12 3 3 69 22
147 42 l142 35 0 225 c0 123 4 230 8 237 5 6 15 12 23 12 8 0 14 4 14 9 0 18
39 22 69 6 26 -13 87 -15 433 -14 222 0 410 -2 419 -5 13 -6 15 -31 11 -192
l-4 -186 78 5 79 6 -65 -11 c-36 -5 -71 -11 -77 -14 -10 -2 -13 -50 -13 -193
0 -172 2 -190 18 -194 16 -4 16 -5 0 -6 -25 -1 -26 -61 -1 -61 9 0 151 23 315
50 174 29 327 50 366 49 53 -1 -7 -13 -293 -60 -198 -33 -370 -62 -382 -64
-19 -4 -23 -12 -23 -40 0 -42 -10 -41 156 -15 144 22 1015 140 1033 140 7 0
11 22 11 59 0 54 -2 60 -22 64 l-23 4 23 2 c19 1 22 7 22 42 l0 42 -42 -7
c-65 -11 -409 -46 -438 -45 -47 2 69 27 276 60 l204 33 0 98 c0 72 -3 98 -12
98 -10 0 -10 2 -1 8 9 5 12 52 12 159 0 106 4 158 13 172 14 23 38 27 55 10
15 -15 571 -8 598 8 11 7 38 20 60 30 36 16 38 18 15 21 -14 1 -131 -6 -260
-16 -132 -11 -239 -15 -244 -11 -6 5 -21 9 -35 9 -50 0 -12 9 125 29 78 11
228 23 334 27 146 6 193 10 197 21 3 7 12 13 20 13 22 0 42 30 43 63 0 19 7
31 24 38 27 13 46 65 46 127 0 26 5 42 15 46 12 4 15 33 15 171 l0 165 -237 1
c-259 1 -259 1 45 45 l192 27 0 222 0 222 -27 12 c-15 7 -64 15 -110 18 -46 3
-80 10 -76 14 7 7 158 29 201 29 9 0 12 35 12 140 l0 140 -32 1 -33 1 30 7 30
6 3 353 2 352 -24 0 c-14 0 -125 -11 -247 -25 -122 -14 -224 -23 -226 -21 -7
7 95 26 136 26 21 0 76 6 122 14 46 8 119 17 162 21 l77 7 0 65 c0 63 -1 65
-22 59 -49 -13 -362 -75 -365 -72 -10 10 260 96 319 102 l67 7 1 399 c0 377
-1 399 -17 394 -96 -29 -149 -36 -285 -36 -81 0 -148 4 -148 8 0 4 14 16 32
27 50 29 191 54 311 55 l107 0 0 181 0 182 -82 -6 c-46 -3 -188 -20 -316 -37
-128 -17 -238 -30 -244 -28 -6 2 52 23 127 47 150 48 230 60 403 60 l112 1 0
140 0 140 -122 1 -123 2 80 8 c44 5 99 12 122 15 l43 5 0 389 c-1 214 -4 391
-8 394 -4 2 -50 -4 -102 -15 -254 -52 -734 -109 -923 -109 -83 0 -148 2 -145
5 13 13 283 47 635 80 208 19 385 37 393 39 8 3 -172 3 -400 2 -371 -3 -427
-5 -527 -24 -129 -24 -706 -95 -731 -90 -9 2 154 25 363 51 209 27 391 52 405
57 15 5 -66 9 -207 9 -217 1 -250 -1 -529 -39 -163 -23 -304 -39 -313 -38 -9
2 72 16 179 32 107 15 206 32 220 37 28 10 -411 4 -470 -6 -27 -5 -31 -4 -20
4 11 8 -37 11 -180 8 -165 -2 -223 -8 -375 -35 -166 -29 -334 -49 -310 -37 6
3 99 18 209 34 109 17 201 32 204 35 3 4 -219 6 -492 6 -459 0 -504 -2 -574
-19 -116 -29 -497 -70 -767 -81 -550 -23 -734 -30 -815 -29 l-85 1 45 14 c80
26 282 63 425 80 77 8 154 19 170 24 51 14 -480 9 -575 -5z m3088 -12 c-10 -2
-26 -2 -35 0 -10 3 -2 5 17 5 19 0 27 -2 18 -5z m-65 -10 c-7 -2 -19 -2 -25 0
-7 3 -2 5 12 5 14 0 19 -2 13 -5z m155 -50 c-10 -2 -26 -2 -35 0 -10 3 -2 5
17 5 19 0 27 -2 18 -5z m-65 -10 c-7 -2 -21 -2 -30 0 -10 3 -4 5 12 5 17 0 24
-2 18 -5z m-76 -9 c-3 -3 -12 -4 -19 -1 -8 3 -5 6 6 6 11 1 17 -2 13 -5z m430
-20 c-3 -3 -12 -4 -19 -1 -8 3 -5 6 6 6 11 1 17 -2 13 -5z m188 -94 c-75 -12
-153 -12 -135 0 8 5 53 9 100 9 79 -2 81 -2 35 -9z m-3552 -7 c-24 -2 -62 -2
-85 0 -24 2 -5 4 42 4 47 0 66 -2 43 -4z m4966 -87 c-11 -11 -490 -58 -674
-66 -354 -17 -522 -9 -345 15 158 22 1033 65 1019 51z m-3050 -40 c-7 -7 -171
-28 -176 -23 -2 3 24 9 59 15 70 11 124 14 117 8z m-571 -11 c-6 -7 -359 -47
-365 -42 -2 3 40 13 94 22 54 9 103 18 108 20 16 5 169 6 163 0z m2614 -106
c-46 -9 -425 -40 -469 -38 -60 2 85 30 197 38 164 11 328 11 272 0z m-852 -30
c-105 -16 -276 -40 -600 -84 -317 -42 -333 -43 -652 -47 -180 -2 -326 -3 -325
-2 7 8 215 37 379 55 106 11 258 31 338 45 114 19 201 26 405 33 361 11 527
11 455 0z m643 -146 c-7 -2 -21 -2 -30 0 -10 3 -4 5 12 5 17 0 24 -2 18 -5z
m-58 -8 c-5 -2 -126 -20 -269 -40 -252 -35 -333 -41 -250 -17 70 20 566 74
519 57z m842 -31 c-3 -3 -12 -4 -19 -1 -8 3 -5 6 6 6 11 1 17 -2 13 -5z m-38
-8 c-2 -2 -49 -6 -104 -10 -64 -4 -93 -2 -80 3 19 9 193 15 184 7z m-904 -66
c3 -5 -3 -10 -15 -10 -12 0 -18 5 -15 10 3 6 10 10 15 10 5 0 12 -4 15 -10z
m223 -17 c-16 -2 -40 -2 -55 0 -16 2 -3 4 27 4 30 0 43 -2 28 -4z m-454 -44
c42 -2 -287 -37 -344 -37 -33 0 -12 7 75 24 78 15 141 22 179 19 32 -3 73 -6
90 -6z m-2289 -59 c-92 -11 -201 -20 -189 -14 20 9 136 21 194 21 l55 0 -60
-7z m3770 -26 c-359 -23 -1105 -117 -1575 -199 -367 -64 -590 -97 -555 -81 35
17 1036 208 1150 220 358 39 839 71 1080 73 69 0 38 -4 -100 -13z m-3540 -74
c-44 -19 -508 -92 -495 -77 9 10 429 83 485 85 25 1 27 -1 10 -8z m3564 5
c-10 -9 -310 -65 -429 -79 -69 -8 -260 -24 -425 -36 -165 -11 -327 -23 -360
-25 -47 -4 -54 -3 -31 5 27 8 1001 125 1111 133 91 6 138 7 134 2z m-2664 -34
c-34 -14 -131 -23 -120 -12 9 9 53 16 115 19 22 1 23 0 5 -7z m740 -6 c-5 -2
-172 -27 -370 -55 -198 -28 -371 -53 -385 -56 -19 -4 -22 -3 -14 6 12 12 165
36 539 85 165 21 255 29 230 20z m-2952 -32 c-7 -2 -19 -2 -25 0 -7 3 -2 5 12
5 14 0 19 -2 13 -5z m-44 -7 c-2 -2 -31 -6 -64 -9 -37 -3 -51 -2 -35 3 25 8
107 13 99 6z m4558 -93 c-4 -3 -38 -19 -76 -33 -38 -15 -82 -36 -97 -47 -33
-23 -271 -57 -359 -51 -45 3 -28 9 164 57 118 29 249 59 290 66 42 7 78 13 80
14 2 1 1 -2 -2 -6z m-2613 -13 c-11 -4 -56 -13 -100 -19 -43 -7 -90 -14 -104
-16 -20 -4 -22 -3 -9 5 20 11 160 38 204 38 26 1 27 0 9 -8z m1535 -44 c-5 -5
-362 -48 -549 -66 -63 -6 -135 -10 -160 -8 -83 6 163 38 545 71 65 6 169 7
164 3z m-2324 -62 c-33 -7 -82 -13 -110 -12 -48 1 -47 1 25 13 107 18 164 17
85 -1z m-525 -83 c-21 -12 -185 -31 -256 -30 -50 1 -55 2 -29 10 69 20 316 37
285 20z m2405 0 c-22 -19 -82 -31 -154 -30 -91 1 -64 13 64 27 44 5 84 10 90
11 6 1 6 -2 0 -8z m-775 -17 c-64 -13 -178 -19 -168 -9 6 7 141 22 193 23 34
0 30 -2 -25 -14z m-661 -78 c-2 -2 -31 -7 -64 -10 -42 -5 -56 -4 -45 3 13 10
119 16 109 7z m1006 -7 c-111 -18 -655 -56 -629 -44 6 3 65 16 130 30 104 20
146 23 334 23 150 0 200 -3 165 -9z m-1336 -13 c-27 -28 -532 -124 -759 -146
-127 -12 -237 -29 -379 -60 -51 -12 -96 -18 -99 -16 -7 7 78 46 101 46 35 0
333 52 437 75 238 54 722 124 699 101z m3324 -53 c-7 -2 -19 -2 -25 0 -7 3 -2
5 12 5 14 0 19 -2 13 -5z m67 -63 c-8 -5 -24 -10 -35 -10 -17 0 -17 2 -5 10 8
5 24 10 35 10 17 0 17 -2 5 -10z m-831 -14 c-14 -14 -605 -97 -676 -95 -58 1
10 14 307 55 293 40 378 49 369 40z m693 -25 c-4 -27 -8 -30 -65 -40 -52 -10
-1279 -179 -1417 -196 l-45 -6 85 46 84 46 236 25 c129 13 303 33 385 44 244
33 709 101 720 105 20 7 21 5 17 -24z m123 -97 c-33 -8 -98 -24 -145 -35 -135
-34 -212 -50 -217 -45 -10 10 201 70 287 81 124 17 149 16 75 -1z m-3427 -34
c-40 -12 -214 -29 -358 -34 -115 -5 -108 -3 95 18 121 13 236 24 255 24 34 0
34 0 8 -8z m732 -12 c-121 -24 -520 -74 -508 -62 7 6 60 17 118 23 58 7 166
21 240 31 147 20 228 24 150 8z m2065 -39 c-71 -23 -234 -57 -290 -61 -62 -3
-172 3 -156 9 16 7 456 70 486 71 11 0 -7 -9 -40 -19z m-3302 4 c-13 -2 -33
-2 -45 0 -13 2 -3 4 22 4 25 0 35 -2 23 -4z m2172 -27 l-90 -33 -250 -6 c-282
-6 -271 0 66 37 129 14 248 27 264 29 97 13 99 5 10 -27z m-2267 17 c-10 -2
-26 -2 -35 0 -10 3 -2 5 17 5 19 0 27 -2 18 -5z m-215 -30 c-7 -2 -19 -2 -25
0 -7 3 -2 5 12 5 14 0 19 -2 13 -5z m877 2 c0 -13 -60 -25 -226 -44 -99 -12
-197 -24 -219 -27 -30 -3 -36 -2 -24 5 13 9 151 29 424 64 17 2 33 5 38 6 4 0
7 -1 7 -4z m-1030 -30 c-112 -26 -291 -50 -312 -43 -7 3 41 13 107 23 66 9
152 23 190 30 117 21 127 15 15 -10z m2028 -12 c-10 -2 -26 -2 -35 0 -10 3 -2
5 17 5 19 0 27 -2 18 -5z m1982 -39 c-41 -8 -97 -13 -125 -12 -50 3 -49 3 25
14 41 6 98 11 125 12 48 0 47 -1 -25 -14z m-1840 -25 c-39 -8 -333 -50 -445
-64 -22 -3 7 8 65 25 99 28 245 47 375 47 l50 1 -45 -9z m1283 -66 c-7 -2 -19
-2 -25 0 -7 3 -2 5 12 5 14 0 19 -2 13 -5z m-200 -24 c-13 -13 -323 -61 -363
-57 -14 2 58 17 160 34 223 38 217 37 203 23z m1067 -49 c-8 -5 -35 -9 -60 -8
l-45 1 50 7 c28 4 55 7 60 8 6 1 3 -3 -5 -8z m-2590 -4 c0 -11 -470 -87 -522
-85 -27 1 186 41 362 68 134 21 160 23 160 17z m-557 -93 c-7 -2 -19 -2 -25 0
-7 3 -2 5 12 5 14 0 19 -2 13 -5z m3784 -19 c-3 -3 -12 -4 -19 -1 -8 3 -5 6 6
6 11 1 17 -2 13 -5z m-1622 -10 c-11 -2 -139 -18 -285 -34 -380 -43 -508 -59
-565 -70 -27 -5 -84 -12 -125 -14 -58 -4 -37 1 90 24 229 39 521 78 670 89
127 8 251 11 215 5z m1542 0 c-3 -3 -12 -4 -19 -1 -8 3 -5 6 6 6 11 1 17 -2
13 -5z m-497 -25 c-41 -11 -115 -22 -165 -24 -107 -5 -90 1 65 25 152 23 194
23 100 -1z m-870 -154 c0 -8 -1 -15 -3 -15 -1 0 -58 -7 -126 -15 -68 -9 -126
-14 -128 -12 -2 3 40 14 94 26 54 12 103 24 108 26 26 9 55 4 55 -10z m-475
-20 c-47 -19 -468 -105 -535 -110 -47 -3 -146 -12 -220 -20 -274 -30 -682 -66
-703 -63 -12 2 64 14 168 26 105 13 429 57 720 97 485 67 598 80 570 70z
m1454 -19 c-2 -3 -69 -27 -147 -55 -163 -57 -156 -56 -1052 -181 -316 -44
-586 -82 -600 -85 -14 -3 -160 -18 -325 -35 -396 -40 -581 -64 -805 -105 -257
-47 -595 -87 -705 -83 -102 3 -169 -7 930 148 275 39 804 115 1175 169 371 55
745 109 830 121 85 12 270 41 410 65 257 43 297 49 289 41z m-3132 -72 c-3 -3
-12 -4 -19 -1 -8 3 -5 6 6 6 11 1 17 -2 13 -5z m-112 -19 c-109 -19 -180 -27
-172 -18 10 9 148 31 202 31 31 0 24 -3 -30 -13z m293 -92 c-10 -2 -26 -2 -35
0 -10 3 -2 5 17 5 19 0 27 -2 18 -5z m509 -109 c-3 -3 -12 -4 -19 -1 -8 3 -5
6 6 6 11 1 17 -2 13 -5z m-62 -9 c-19 -8 -808 -116 -817 -113 -17 6 310 58
547 88 203 26 295 34 270 25z m985 -75 c-30 -5 -80 -8 -110 -7 l-55 0 65 7
c36 4 85 7 110 7 44 0 44 0 -10 -7z m-192 -17 c-10 -2 -26 -2 -35 0 -10 3 -2
5 17 5 19 0 27 -2 18 -5z m-1641 -29 c-3 -3 -12 -4 -19 -1 -8 3 -5 6 6 6 11 1
17 -2 13 -5z m2343 -114 c0 -6 -25 -9 -57 -9 -48 1 -53 3 -28 9 45 11 85 11
85 0z m-445 -80 c-28 -12 -37 -12 -30 0 3 6 16 10 28 9 21 0 21 -1 2 -9z m900
1 c-6 -5 -57 -16 -115 -25 -157 -24 -1290 -176 -1309 -175 -9 0 13 9 49 20
105 32 411 81 1110 178 86 11 277 13 265 2z m752 3 c-16 -17 -243 -54 -352
-58 -136 -6 -134 -5 88 34 152 26 278 38 264 24z m-2552 -19 c-36 -14 -745
-129 -864 -140 -237 -23 -243 -23 -263 -3 -12 12 -27 16 -45 13 -16 -3 -84
-16 -153 -29 -80 -16 -181 -27 -280 -31 -85 -3 -180 -8 -210 -11 -30 -3 -52
-3 -49 0 5 6 1038 147 1354 186 129 15 544 28 510 15z m720 -4 c-10 -10 -566
-93 -573 -86 -10 9 120 37 303 64 214 31 285 37 270 22z m-2910 -42 c-22 -4
-51 -8 -65 -8 -23 0 -23 1 -5 9 11 5 40 8 65 8 l45 0 -40 -9z m4035 -44 c0 -8
-3 -15 -7 -15 -4 0 -219 -27 -477 -60 -258 -34 -476 -60 -485 -58 -12 2 883
140 957 147 6 0 12 -6 12 -14z m-1946 -30 c-33 -15 -417 -70 -544 -79 -105 -7
-75 -1 255 48 324 49 333 50 289 31z m-636 -92 c-10 -2 -26 -2 -35 0 -10 3 -2
5 17 5 19 0 27 -2 18 -5z m1580 -20 c-10 -2 -26 -2 -35 0 -10 3 -2 5 17 5 19
0 27 -2 18 -5z m-75 -10 c-7 -2 -21 -2 -30 0 -10 3 -4 5 12 5 17 0 24 -2 18
-5z m-80 -10 c-7 -2 -19 -2 -25 0 -7 3 -2 5 12 5 14 0 19 -2 13 -5z m-913 -13
c-14 -4 -34 -8 -45 -8 l-20 -1 20 9 c11 5 31 8 45 8 l25 0 -25 -8z m843 3 c-7
-2 -19 -2 -25 0 -7 3 -2 5 12 5 14 0 19 -2 13 -5z m-1146 -39 c-33 -18 -474
-80 -627 -89 -58 -3 -139 -7 -180 -10 -223 -13 205 56 550 89 306 30 292 29
257 10z m1038 -50 c-77 -13 -430 -66 -785 -119 -355 -52 -658 -97 -675 -100
-41 -7 -22 6 55 40 61 27 113 35 775 116 391 47 724 86 740 87 17 0 -33 -11
-110 -24z m1234 -8 c-13 -13 -1152 -168 -1214 -165 -43 1 18 11 495 79 532 76
733 100 719 86z m-3439 -41 c-31 -12 -212 -21 -184 -9 18 7 133 21 179 22 l40
0 -35 -13z m3513 -102 c-13 -2 -35 -2 -50 0 -16 2 -5 4 22 4 28 0 40 -2 28 -4z
m-3058 -9 c-5 -2 -142 -35 -303 -74 l-292 -70 -267 0 c-147 0 -263 4 -258 8
33 28 105 40 755 126 93 12 390 21 365 10z m1732 -20 c-3 -3 -12 -4 -19 -1 -8
3 -5 6 6 6 11 1 17 -2 13 -5z m-1639 -45 c-44 -22 -89 -34 -194 -49 -76 -11
-139 -19 -141 -16 -4 4 352 93 377 94 8 1 -11 -12 -42 -29z m3201 -3 c-17 -16
-439 -71 -804 -106 -170 -16 -458 -52 -638 -80 l-328 -50 -282 2 -281 3 300
58 c177 34 354 61 434 68 74 6 383 32 685 59 384 33 606 48 734 49 101 0 182
-1 180 -3z m659 -2 c-14 -13 -208 -33 -373 -38 l-180 -6 85 24 c75 21 107 24
279 25 107 1 192 -2 189 -5z m-135 -101 c-7 -2 -19 -2 -25 0 -7 3 -2 5 12 5
14 0 19 -2 13 -5z m-658 -28 c-17 -7 -687 -57 -691 -52 -6 5 189 25 422 42
180 13 288 17 269 10z m-4046 -185 c-26 -4 -87 -10 -135 -13 l-89 -6 85 13
c47 7 108 13 135 13 l50 1 -46 -8z m1911 4 c-8 -2 -238 -38 -512 -79 -463 -70
-507 -75 -659 -75 -92 0 -159 4 -154 9 6 4 89 20 185 35 96 15 281 47 410 70
l235 43 255 1 c140 0 248 -2 240 -4z m880 0 c-32 -7 -462 -36 -466 -31 -4 4
122 21 226 31 47 4 259 5 240 0z m-3037 -31 c-13 -2 -33 -2 -45 0 -13 2 -3 4
22 4 25 0 35 -2 23 -4z m-90 -10 c-7 -2 -21 -2 -30 0 -10 3 -4 5 12 5 17 0 24
-2 18 -5z m3062 -48 c-310 -52 -358 -56 -650 -53 l-270 3 520 38 c286 22 522
41 524 43 2 2 20 4 40 3 20 -1 -54 -16 -164 -34z m1539 -45 c-11 -4 -47 -11
-80 -14 l-59 -5 60 13 c33 8 69 14 80 14 19 1 19 0 -1 -8z m-147 -26 c-3 -3
-12 -4 -19 -1 -8 3 -5 6 6 6 11 1 17 -2 13 -5z m-2402 -83 c-18 -16 -313 -52
-583 -71 -518 -36 -476 -35 -518 -9 -21 12 -33 24 -28 26 5 1 61 12 124 25
104 20 156 23 540 28 234 3 436 7 450 8 14 1 20 -2 15 -7z m3128 -38 c-7 -2
-19 -2 -25 0 -7 3 -2 5 12 5 14 0 19 -2 13 -5z m-818 -28 c-138 -22 -521 -52
-531 -42 -9 8 285 48 416 56 255 15 283 12 115 -14z m-3505 -20 c11 -13 1 -15
-81 -14 l-94 1 60 13 c83 17 101 17 115 0z m778 -82 c-10 -2 -28 -2 -40 0 -13
2 -5 4 17 4 22 1 32 -1 23 -4z m-1073 -9 c-49 -8 -568 -54 -572 -50 -2 2 29 9
69 16 40 7 102 18 138 25 37 8 133 13 225 13 88 -1 151 -2 140 -4z m2594 -38
c-16 -14 -284 -81 -429 -107 -165 -29 -186 -30 -375 -26 -184 3 -444 32 -406
45 18 6 1078 89 1155 91 33 0 57 -1 55 -3z m-2322 -72 c-3 -3 -12 -4 -19 -1
-8 3 -5 6 6 6 11 1 17 -2 13 -5z m-89 -11 c-16 -2 -40 -2 -55 0 -16 2 -3 4 27
4 30 0 43 -2 28 -4z m997 -42 c30 -7 11 -9 -75 -9 -72 0 -104 3 -85 8 41 10
112 11 160 1z m3415 -45 c0 -13 -197 -47 -256 -44 -67 3 -66 3 76 24 160 24
180 26 180 20z m-1132 -23 c-10 -2 -26 -2 -35 0 -10 3 -2 5 17 5 19 0 27 -2
18 -5z m-851 -10 c-20 -2 -52 -2 -70 0 -17 2 0 4 38 4 39 0 53 -2 32 -4z m758
-4 c-22 -4 -53 -8 -70 -7 -29 1 -29 1 5 8 19 4 51 7 70 8 l35 0 -40 -9z
m-1360 -84 c-121 -19 -231 -33 -245 -33 -38 1 152 38 270 52 207 26 191 13
-25 -19z m2052 8 c-9 -8 -187 -32 -245 -33 -36 0 -41 2 -30 13 7 8 20 16 28
20 21 8 255 8 247 0z m-577 -62 c-20 -12 -118 -29 -205 -35 -56 -4 -43 0 60
18 154 28 166 29 145 17z m-2842 -138 c-10 -2 -28 -2 -40 0 -13 2 -5 4 17 4
22 1 32 -1 23 -4z m3021 -48 c-3 -2 -57 -18 -119 -34 -86 -22 -177 -35 -357
-51 -134 -12 -248 -20 -254 -18 -26 9 355 83 481 94 151 12 256 16 249 9z
m-2394 -71 c-33 -8 -114 -16 -180 -19 l-120 -4 140 18 c77 10 158 18 180 19
37 0 35 -1 -20 -14z m58 -91 c-23 -2 -64 -2 -90 0 -26 2 -7 3 42 3 50 0 71 -1
48 -3z m42 -158 c-5 -2 -86 -11 -180 -20 -93 -9 -241 -25 -328 -36 -87 -11
-161 -19 -163 -16 -6 6 310 56 421 66 91 8 268 12 250 6z m-300 -146 c-72 -20
-276 -38 -262 -24 7 9 245 42 302 43 19 0 3 -7 -40 -19z m2040 -19 c-38 -10
-88 -18 -110 -18 -31 0 -20 5 45 18 111 23 155 23 65 0z m-1650 -75 c-20 -7
-447 -56 -458 -52 -10 3 194 40 278 50 40 5 193 6 180 2z m-652 -59 c-16 -20
-33 -25 -143 -39 -69 -8 -126 -14 -128 -12 -2 2 260 72 281 74 4 1 0 -10 -10
-23z m-70 -106 c-84 -17 -303 -37 -258 -23 26 8 282 40 320 41 17 0 -11 -8
-62 -18z m1884 14 c-3 -3 -12 -4 -19 -1 -8 3 -5 6 6 6 11 1 17 -2 13 -5z
m-1819 -499 c-10 -10 -230 -46 -261 -43 -20 2 14 11 88 24 120 22 183 28 173
19z m671 1 c-6 -7 -410 -46 -451 -45 -42 2 -25 5 147 28 128 17 315 27 304 17z
m-982 -43 c-3 -10 -5 -4 -5 12 0 17 2 24 5 18 2 -7 2 -21 0 -30z"/>
<path d="M10120 8460 c-157 -3 -252 -9 -265 -17 -12 -6 -42 -32 -69 -57 -26
-25 -50 -46 -54 -46 -4 0 -18 -16 -31 -35 -13 -19 -30 -35 -37 -35 -8 0 -17
-12 -20 -27 -4 -16 -17 -42 -29 -59 -13 -17 -29 -50 -35 -75 -7 -24 -16 -49
-21 -55 -13 -16 -24 -104 -13 -104 5 0 25 5 44 10 49 15 273 38 415 44 116 5
115 5 -40 -9 -166 -15 -243 -26 -357 -51 l-68 -16 0 -39 0 -39 43 -1 42 -2
-40 -6 -40 -6 -3 -67 c-2 -38 -1 -68 1 -68 2 0 35 11 73 24 51 18 109 27 222
36 85 6 156 10 158 8 9 -9 -344 -78 -398 -78 l-58 0 0 -91 0 -90 43 5 c23 3
101 10 172 16 72 6 195 19 275 30 80 10 255 24 390 30 135 6 261 12 280 13 32
2 35 5 38 35 l3 32 -140 0 c-82 0 -142 4 -146 10 -3 6 -2 10 4 10 16 0 233 30
258 35 23 5 23 8 19 133 -2 70 -5 134 -8 142 -3 8 -8 27 -13 43 l-7 27 -367 1
c-222 1 -350 4 -326 9 22 5 171 27 330 50 160 23 299 45 310 49 19 8 17 11
-17 43 -21 19 -38 41 -38 50 0 21 -69 93 -97 102 -13 4 -23 12 -23 17 0 9
-105 81 -112 77 -2 -1 -113 -4 -248 -8z m-255 -100 c-3 -5 -13 -10 -21 -10 -8
0 -14 5 -14 10 0 6 9 10 21 10 11 0 17 -4 14 -10z m118 -37 c-7 -2 -19 -2 -25
0 -7 3 -2 5 12 5 14 0 19 -2 13 -5z m505 -528 c-16 -16 -220 -65 -268 -64
l-55 0 80 20 c171 43 258 59 243 44z m-443 -95 c-3 -5 -16 -10 -28 -9 -21 0
-21 1 -2 9 28 12 37 12 30 0z"/>
<path d="M2299 8256 c-5 -6 -9 -19 -9 -31 0 -11 -8 -36 -19 -55 l-18 -35 441
2 c268 1 425 -2 401 -7 -66 -14 -295 -29 -550 -35 -132 -3 -261 -8 -287 -11
l-48 -6 0 -43 c0 -24 -4 -47 -10 -50 -5 -3 -10 -26 -10 -51 l0 -44 183 -1 182
-1 -170 -24 c-93 -13 -176 -23 -182 -24 -10 0 -13 -58 -13 -251 l1 -252 107 6
c59 4 206 9 327 13 176 5 228 3 259 -8 l39 -14 -184 -33 c-101 -18 -251 -41
-334 -52 -82 -10 -165 -22 -182 -25 l-33 -5 0 -76 0 -76 138 7 c329 17 517 24
521 20 20 -20 -123 -35 -541 -60 l-118 -6 0 -99 c0 -79 3 -99 14 -99 8 0 65
11 128 25 62 13 183 33 268 45 211 28 381 56 527 86 68 14 128 24 133 22 6 -2
-44 -20 -112 -40 -96 -29 -206 -49 -508 -93 -212 -31 -400 -58 -417 -61 l-33
-5 0 -114 c0 -63 2 -115 5 -115 3 0 152 27 333 59 314 57 651 107 672 99 14
-4 -710 -175 -797 -188 -40 -5 -104 -15 -143 -21 l-70 -11 0 -205 c0 -190 1
-204 18 -199 89 25 352 56 467 55 78 -1 85 -2 51 -10 -63 -15 -384 -68 -461
-76 l-70 -8 -3 -62 c-2 -35 1 -63 6 -63 6 0 41 10 78 21 98 31 184 40 209 23
11 -8 35 -14 54 -14 76 0 9 -18 -129 -34 -80 -10 -162 -20 -182 -23 l-38 -6 0
-188 0 -188 38 -4 37 -4 -37 -1 c-36 -2 -38 -4 -38 -34 0 -40 27 -205 35 -218
3 -6 12 -10 18 -10 7 0 17 -10 22 -22 6 -13 17 -23 25 -22 8 0 44 4 80 7 65 6
42 -2 -52 -18 -34 -5 -37 -9 -34 -33 1 -15 15 -40 29 -56 15 -16 27 -33 27
-37 0 -5 28 -10 63 -10 55 -1 58 -2 24 -9 -63 -12 -61 -17 32 -92 7 -6 33 -15
56 -19 24 -4 55 -19 70 -33 35 -32 84 -39 245 -34 125 4 129 4 150 30 15 20
33 29 68 34 26 3 58 13 72 22 44 28 149 140 156 166 3 14 14 28 25 31 10 4 23
22 29 43 16 58 14 64 -17 58 -16 -3 -65 -10 -111 -16 -45 -6 -119 -17 -163
-25 -98 -17 -323 -30 -294 -16 23 11 350 66 480 81 122 15 132 17 140 37 17
39 25 138 27 351 3 192 1 222 -12 222 -12 0 -12 2 -2 9 10 6 14 33 14 92 0 82
-1 84 -24 83 -13 -1 -67 -4 -120 -8 -54 -4 -98 -5 -98 -3 0 3 51 10 113 17 61
7 117 15 122 19 6 3 10 48 10 99 0 55 -4 92 -10 92 -5 0 -66 -14 -135 -30
-136 -32 -235 -47 -210 -32 13 8 193 54 313 79 l38 8 2 440 2 440 -190 -2
-190 -2 188 27 189 27 1 99 2 98 -125 -6 c-69 -4 -168 -9 -220 -12 -72 -4 -91
-2 -77 6 10 6 104 19 210 27 106 9 196 20 201 24 4 4 8 40 9 81 0 71 0 73 -24
71 -13 -1 -62 -4 -109 -7 l-85 -5 100 17 c55 10 105 20 110 24 6 3 9 35 7 72
l-4 66 -191 0 c-104 0 -187 3 -183 7 12 13 210 31 228 22 9 -5 46 -9 82 -9
l66 0 0 68 c0 37 -3 77 -6 90 l-7 23 -278 -3 c-389 -4 -368 14 36 32 110 5
208 10 218 10 16 0 16 3 4 28 -8 15 -17 44 -21 65 -5 26 -14 41 -29 46 -12 5
-29 20 -36 35 l-14 26 -474 2 c-290 2 -478 -1 -484 -6z m386 -516 c-66 -10
-178 -21 -250 -24 l-130 -5 110 23 c86 19 140 24 250 24 l140 -1 -120 -17z
m482 -106 c-3 -3 -12 -4 -19 -1 -8 3 -5 6 6 6 11 1 17 -2 13 -5z m-327 -194
c0 -6 -30 -9 -72 -8 l-73 1 55 7 c86 11 90 11 90 0z m178 -1610 c-15 -4 -51
-10 -80 -13 l-53 -6 55 13 c30 8 66 14 80 14 l25 0 -27 -8z m-141 -26 c-3 -3
-12 -4 -19 -1 -8 3 -5 6 6 6 11 1 17 -2 13 -5z m198 -256 c-45 -15 -94 -21
-200 -23 -77 -2 -129 -1 -116 1 42 10 305 42 341 42 31 0 29 -2 -25 -20z
m-157 -133 c-2 -1 -19 -5 -38 -9 -36 -7 -32 9 5 16 18 4 41 0 33 -7z m-348
-22 c-72 -23 -233 -48 -268 -41 -16 3 297 66 328 66 8 0 -19 -11 -60 -25z"/>
<path d="M10415 7534 c-248 -41 -294 -46 -570 -57 l-300 -12 -3 -717 c-1 -395
0 -718 2 -718 2 0 41 7 86 16 45 8 84 13 87 11 4 -5 -145 -47 -165 -47 -7 0
-12 -15 -12 -36 l0 -37 53 7 c129 17 133 16 52 -10 -44 -14 -86 -27 -93 -29
-10 -4 -12 -39 -10 -152 l3 -147 55 2 c30 2 107 11 170 22 156 25 179 28 380
45 153 13 462 47 558 61 l32 5 0 155 0 156 -67 -7 c-38 -4 -113 -13 -168 -20
-55 -7 -101 -11 -103 -10 -4 3 254 92 298 103 l35 8 0 119 0 120 -45 -2 -45
-2 45 12 45 13 3 102 c1 56 1 102 -2 102 -2 0 -51 -11 -108 -25 -58 -13 -170
-31 -249 -39 -183 -18 -297 -27 -284 -21 6 2 150 25 320 51 171 25 313 48 317
50 4 3 7 139 8 304 l0 300 -72 1 c-40 1 -59 4 -43 6 17 2 49 6 73 9 l42 5 0
70 0 69 -32 1 -33 1 30 7 30 6 3 98 3 97 -28 -1 c-15 -1 -149 -21 -298 -45z
m-400 -394 c-16 -4 -52 -8 -80 -8 -47 1 -48 1 -15 8 19 4 55 7 80 8 40 0 42
-1 15 -8z m310 -66 c-44 -8 -138 -12 -250 -12 l-180 1 180 12 c99 7 212 12
250 12 l70 1 -70 -14z m301 -793 c-7 -11 -104 -29 -191 -35 l-70 -5 55 14 c30
8 87 19 125 24 39 4 74 9 78 10 5 0 6 -3 3 -8z m-508 -286 c-53 -18 -111 -36
-130 -39 -18 -3 19 12 82 33 63 22 122 39 130 39 8 0 -29 -14 -82 -33z"/>
<path d="M10615 5689 c-44 -10 -138 -23 -210 -29 -197 -16 -511 -57 -688 -90
-88 -17 -164 -30 -169 -30 -7 0 -9 -29 -5 -88 5 -82 21 -142 37 -142 4 0 13
-30 20 -66 7 -36 18 -68 25 -70 7 -3 27 -26 46 -52 44 -63 71 -92 87 -92 7 0
15 -7 19 -15 5 -14 22 -15 117 -10 120 6 122 -7 3 -20 -70 -8 -92 -25 -31 -25
27 0 42 -7 65 -32 l29 -33 168 0 c157 0 169 1 190 21 13 12 44 28 70 35 26 7
51 18 55 26 4 7 16 13 26 13 10 0 34 18 54 40 19 22 39 40 44 40 5 0 17 14 27
30 l17 30 -58 -5 -58 -4 50 10 c76 15 113 38 126 79 6 19 23 62 37 95 22 54
25 78 30 233 l5 172 -24 -1 c-13 -1 -60 -10 -104 -20z m-748 -245 c-3 -3 -12
-4 -19 -1 -8 3 -5 6 6 6 11 1 17 -2 13 -5z m-44 -11 c-7 -2 -21 -2 -30 0 -10
3 -4 5 12 5 17 0 24 -2 18 -5z m-60 -10 c-7 -2 -19 -2 -25 0 -7 3 -2 5 12 5
14 0 19 -2 13 -5z m607 -10 c-24 -10 -77 -16 -165 -19 -108 -3 -121 -2 -76 7
62 11 201 26 246 27 l30 0 -35 -15z m268 -138 c-13 -13 -353 -58 -598 -79
l-65 -6 22 22 c27 26 89 36 248 38 61 1 166 7 235 14 158 17 165 17 158 11z
m-158 -155 c0 -5 -4 -10 -10 -10 -5 0 -10 5 -10 10 0 6 5 10 10 10 6 0 10 -4
10 -10z"/>
<path d="M7622 2714 c-293 -51 -562 -96 -598 -99 l-64 -7 0 -44 c0 -28 4 -44
12 -44 22 0 1182 161 1186 164 2 2 2 30 0 63 l-3 59 -533 -92z"/>
<path d="M7807 2600 c-270 -38 -824 -128 -839 -137 -5 -2 -8 -26 -8 -54 l0
-49 53 -1 52 -1 -52 -10 -53 -10 0 -63 c0 -35 5 -88 11 -117 12 -58 48 -166
58 -172 3 -2 58 4 121 15 64 10 159 18 215 18 l100 -1 -90 -17 c-49 -9 -94
-18 -100 -21 -5 -3 -59 -7 -120 -9 -60 -2 -111 -4 -112 -5 -2 -1 5 -11 15 -22
10 -10 21 -27 25 -36 5 -14 16 -16 59 -13 l53 5 -50 -14 c-49 -13 -49 -15 0
-31 8 -2 15 -16 15 -30 0 -20 6 -27 30 -32 17 -3 35 -14 41 -24 5 -11 15 -19
22 -19 7 0 20 -9 30 -20 9 -11 28 -20 42 -20 14 0 25 -4 25 -9 0 -5 24 -12 53
-16 28 -4 73 -14 99 -23 38 -13 55 -14 95 -5 99 23 138 34 148 43 6 5 30 12
53 16 91 14 45 24 -120 25 -95 1 -166 3 -158 5 8 2 107 13 219 24 113 11 207
23 211 27 3 5 11 20 18 36 l12 27 -298 1 -297 1 90 20 c67 14 152 21 330 26
l239 7 21 40 c11 22 26 46 33 53 6 8 17 22 23 33 15 29 39 175 39 242 0 67 12
64 -155 37 -67 -11 -162 -20 -215 -19 l-95 1 155 24 c85 13 189 27 230 31 l75
8 3 138 3 137 -38 -1 c-21 -1 -163 -18 -316 -39z m-24 -77 c-7 -2 -21 -2 -30
0 -10 3 -4 5 12 5 17 0 24 -2 18 -5z m-153 -23 c-58 -10 -132 -21 -165 -24
l-60 -5 50 10 c84 17 218 37 250 37 17 0 -17 -8 -75 -18z m-12 -136 c-10 -9
-410 -65 -443 -62 -43 4 319 61 424 67 13 0 22 -2 19 -5z m-233 -255 c-60 -11
-130 -18 -155 -17 -33 2 -13 7 75 19 164 22 214 21 80 -2z m635 0 c-67 -12
-140 -18 -200 -17 l-95 3 155 16 c216 23 272 22 140 -2z m59 -93 c-2 -2 -67
-6 -144 -9 -77 -3 -126 -1 -110 3 29 7 262 13 254 6z"/>
<path d="M5918 2062 c-10 -2 -18 -9 -18 -15 0 -9 -2 -9 -8 0 -9 14 -178 -9
-489 -68 -129 -24 -207 -32 -334 -36 l-166 -6 21 -38 c12 -22 29 -42 39 -45 9
-3 17 -10 17 -15 0 -20 68 -79 99 -85 18 -4 35 -13 38 -20 3 -8 13 -14 22 -14
9 -1 34 -9 56 -20 22 -11 55 -19 73 -20 17 0 32 -4 32 -9 0 -14 71 -20 125
-11 28 5 75 13 105 19 60 10 120 36 133 58 4 7 16 13 27 13 30 0 87 42 107 80
l19 35 -55 -2 c-54 -1 -54 -1 25 14 l81 16 38 72 c39 76 42 103 13 97z m-711
-328 c-3 -3 -12 -4 -19 -1 -8 3 -5 6 6 6 11 1 17 -2 13 -5z"/>
</g>
</svg>
